<svg xmlns="http://www.w3.org/2000/svg" viewBox="0 0 230 269.22"><defs><style>.cls-1{fill:#71c7c2;}.cls-2{fill:#7fa0f4;}.cls-3{fill:#e58fc6;}.cls-4{font-size:8.41px;}.cls-13,.cls-15,.cls-17,.cls-19,.cls-4{fill:#fff;}.cls-17,.cls-19,.cls-4{font-family:AbrilFatface-Regular, AbrilFatface Regular;}.cls-5{letter-spacing:0em;}.cls-6{fill:#22294d;}.cls-7{fill:#f2cf53;}.cls-8{fill:#2d366c;}.cls-9{fill:#edbc8a;}.cls-10{fill:#f0c89f;}.cls-11{fill:#262d45;}.cls-12{fill:#d57153;}.cls-14{fill:#663c3e;}.cls-15{opacity:0.34;}.cls-16{fill:#e27d4c;}.cls-17{font-size:7.95px;}.cls-18{letter-spacing:-0.01em;}.cls-19{font-size:8.61px;}.cls-20{letter-spacing:-0.01em;}.cls-21{letter-spacing:-0.01em;}.cls-22{letter-spacing:0em;}</style></defs><g id="Layer_2" data-name="Layer 2"><g><rect class="cls-1" x="33" y="112.22" width="76" height="76" rx="38"/><rect class="cls-2" x="45" y="204.22" width="65" height="65" rx="32.5"/><rect class="cls-3" y="232.22" width="51" height="14"/><text class="cls-4" transform="translate(5.36 241.32)">ma<tspan class="cls-5" x="11.07" y="0">r</tspan><tspan x="13.86" y="0">keting</tspan></text><path class="cls-6" d="M96,246.17V219.78a18.42,18.42,0,0,0-18.5-18.33h0A18.42,18.42,0,0,0,59,219.78v30c0,10,8.2-3.56,18.26-3.57h.49C87.8,246.28,96,256.13,96,246.17Z"/><path class="cls-7" d="M97.33,250.53c-4.27-3.88-12.27-5.31-18.49-5.31h-3.4c-6.22,0-14.22,1.43-18.49,5.31-4.83,4.39-5.53,11.66-5.54,18.69h51.45C102.86,262.19,102.16,254.92,97.33,250.53Z"/><path class="cls-8" d="M79.17,245.22H75.83a41,41,0,0,0-6.83.58v2.68a8.72,8.72,0,0,0,7.24,8.73A8.55,8.55,0,0,0,86,248.67V245.8A41,41,0,0,0,79.17,245.22Z"/><path class="cls-9" d="M70,237.22H85a0,0,0,0,1,0,0v11.5a7.5,7.5,0,0,1-7.5,7.5h0a7.5,7.5,0,0,1-7.5-7.5v-11.5a0,0,0,0,1,0,0Z"/><path class="cls-10" d="M77.5,246.06h0a13.26,13.26,0,0,1-8.87-3.41l-1.1-1A13.62,13.62,0,0,1,63,231.53V210.22H92v21.31a13.62,13.62,0,0,1-4.53,10.14l-1.1,1A13.26,13.26,0,0,1,77.5,246.06Z"/><path class="cls-10" d="M95.3,227.22h0a2.78,2.78,0,0,1-.7,1.84l-.25.28a2.59,2.59,0,0,1-1.95.88H88v-6h4.4a2.6,2.6,0,0,1,1.95.89l.25.28A2.77,2.77,0,0,1,95.3,227.22Z"/><path class="cls-6" d="M96,219.22v-1.56a18.42,18.42,0,0,0-18.5-18.33h0A18.42,18.42,0,0,0,59,217.66v17.39s18.56-.75,23.58-15.83a29.15,29.15,0,0,0,.55-4.08l9.24,4.08Z"/><path class="cls-11" d="M87.73,228.05a.27.27,0,0,1-.27-.27,2.85,2.85,0,1,0-5.69,0,.28.28,0,0,1-.28.27.27.27,0,0,1-.27-.27,3.4,3.4,0,1,1,6.79,0A.28.28,0,0,1,87.73,228.05Z"/><path class="cls-11" d="M75.71,233.17a.26.26,0,0,1-.18-.07.25.25,0,0,1,0-.37l0,0a1.84,1.84,0,0,1,2.59,0,.29.29,0,0,1,0,.39.27.27,0,0,1-.39,0,1.28,1.28,0,0,0-1.81,0A.32.32,0,0,1,75.71,233.17Z"/><path class="cls-12" d="M72.09,237.22a5.06,5.06,0,0,0,10,0Z"/><path class="cls-13" d="M81.65,239.22c.19-.62.34-1.07.42-1h-10c.08-.07.22.38.42,1Z"/><rect class="cls-7" x="116" y="177.22" width="76" height="76" rx="38"/><path class="cls-2" d="M178.88,217.63l-3.28-22.28a21.51,21.51,0,0,0-21.51-21.51h0a21.51,21.51,0,0,0-21.51,21.51l-4.07,22.28c0,11.69,13.61,8.77,25.3,8.76h.57C166.07,226.46,178.88,229.31,178.88,217.63Z"/><path class="cls-1" d="M177.72,232.42c-5-4.53-14.31-6.2-21.57-6.2h-4c-7.26,0-16.59,1.67-21.57,6.2-5.63,5.12-6.45,13.6-6.46,21.8h60C184.17,246,183.35,237.54,177.72,232.42Z"/><path class="cls-8" d="M156,225.22H152a49.32,49.32,0,0,0-8,.67v3.16a10.25,10.25,0,0,0,9.08,10.31A10.06,10.06,0,0,0,164,229.27v-3.38A49.32,49.32,0,0,0,156,225.22Z"/><path class="cls-9" d="M154,239h0a8.92,8.92,0,0,1-9-8.84V216.22h18v13.89A8.92,8.92,0,0,1,154,239Z"/><path class="cls-10" d="M154.5,225.29h0a16.3,16.3,0,0,1-10.71-4l-1.31-1.14A16,16,0,0,1,137,208.09V183.22h35v24.87a16,16,0,0,1-5.48,12.06l-1.31,1.14A16.3,16.3,0,0,1,154.5,225.29Z"/><path class="cls-10" d="M133.27,205.22h0a3.66,3.66,0,0,1,.93-2.44l.21-.25a3.88,3.88,0,0,1,2.9-1.31H143v8h-5.69a3.88,3.88,0,0,1-2.9-1.3l-.21-.25A3.66,3.66,0,0,1,133.27,205.22Z"/><path class="cls-10" d="M175.73,205.22h0a3.66,3.66,0,0,0-.93-2.44l-.21-.25a3.88,3.88,0,0,0-2.9-1.31H166v8h5.69a3.88,3.88,0,0,0,2.9-1.3l.21-.25A3.66,3.66,0,0,0,175.73,205.22Z"/><path class="cls-2" d="M176,195.22v-1.84a21.51,21.51,0,0,0-21.5-21.5h0A21.51,21.51,0,0,0,133,193.39v1.83h9.56a12.51,12.51,0,0,0,12.14-9.47l.12-.46h0a12.51,12.51,0,0,0,12.24,9.92Z"/><path class="cls-11" d="M148.91,204.93a.32.32,0,0,1-.32-.32,3.34,3.34,0,0,0-6.68,0,.33.33,0,0,1-.65,0,4,4,0,0,1,8,0A.32.32,0,0,1,148.91,204.93Z"/><path class="cls-11" d="M166.6,204.93a.32.32,0,0,1-.33-.32,3.34,3.34,0,0,0-6.68,0,.32.32,0,0,1-.64,0,4,4,0,0,1,8,0A.32.32,0,0,1,166.6,204.93Z"/><path class="cls-11" d="M152.49,210.94a.3.3,0,0,1-.22-.08.31.31,0,0,1,0-.44l0,0a2.15,2.15,0,0,1,3,0,.32.32,0,0,1,0,.46.33.33,0,0,1-.45,0,1.5,1.5,0,0,0-2.13,0A.35.35,0,0,1,152.49,210.94Z"/><path class="cls-12" d="M145.36,215.22a8.85,8.85,0,0,0,17.46,0Z"/><path class="cls-13" d="M162.09,217.22a7.11,7.11,0,0,0,.73-2H145.36a7.11,7.11,0,0,0,.73,2Z"/><path class="cls-14" d="M78.18,108.41h0a17.18,17.18,0,0,0-5.5.89A16.28,16.28,0,0,1,84,124.63l-.3,33.59h2l.33-4.94.36,4.94h2.78l.53-7.54.57,7.54H95V124.63C95,115.67,87.47,108.41,78.18,108.41Z"/><path class="cls-14" d="M61.82,108.41h0a17.18,17.18,0,0,1,5.5.89A16.28,16.28,0,0,0,56,124.63l.3,33.59H54.35L54,153.28l-.36,4.94H50.88l-.53-7.54-.57,7.54H45V124.63C45,115.67,52.53,108.41,61.82,108.41Z"/><path class="cls-3" d="M94.32,166.42c-5-4.53-14.31-6.2-21.57-6.2h-4c-7.26,0-16.59,1.67-21.57,6.2-5.63,5.12-6.45,13.6-6.46,21.8h60C100.77,180,100,171.54,94.32,166.42Z"/><path class="cls-8" d="M73,160.22H69a49.32,49.32,0,0,0-8,.67v3.16a10.25,10.25,0,0,0,9.08,10.31A10.06,10.06,0,0,0,81,164.27v-3.38A49.32,49.32,0,0,0,73,160.22Z"/><path class="cls-9" d="M71,173h0a8.92,8.92,0,0,1-9-8.84V150.22H80v13.89A8.92,8.92,0,0,1,71,173Z"/><path class="cls-10" d="M70.5,160.29h0a16.3,16.3,0,0,1-10.71-4l-1.31-1.14A16,16,0,0,1,53,143.09V118.22H88v24.87a16,16,0,0,1-5.48,12.06l-1.31,1.14A16.3,16.3,0,0,1,70.5,160.29Z"/><path class="cls-14" d="M92,129.22v-1.83a21.51,21.51,0,0,0-21.5-21.51h0A21.51,21.51,0,0,0,49,127.39v1.83H76.4l.65-4.79.88,4.79Z"/><path class="cls-11" d="M65.51,139.68a.32.32,0,0,1-.32-.32,3.34,3.34,0,1,0-6.68,0,.33.33,0,0,1-.65,0,4,4,0,1,1,8,0A.32.32,0,0,1,65.51,139.68Z"/><path class="cls-11" d="M83.2,139.68a.32.32,0,0,1-.33-.32,3.34,3.34,0,1,0-6.68,0,.32.32,0,0,1-.64,0,4,4,0,1,1,8,0A.32.32,0,0,1,83.2,139.68Z"/><path class="cls-11" d="M69.09,145.69a.31.31,0,0,1-.22-.09.3.3,0,0,1,0-.43l0,0a2.15,2.15,0,0,1,3,0,.32.32,0,1,1-.45.45,1.52,1.52,0,0,0-2.13,0A.36.36,0,0,1,69.09,145.69Z"/><path class="cls-15" d="M67.9,138.44a6,6,0,1,0-6,6A6,6,0,0,0,67.9,138.44Z"/><path class="cls-10" d="M54,135.28l0,0A3.86,3.86,0,1,0,54,143l0,0Z"/><path class="cls-10" d="M88,135.28l0,0A3.86,3.86,0,1,1,88,143l0,0Z"/><path class="cls-15" d="M79.61,132.47a6,6,0,1,0,6,6A6,6,0,0,0,79.61,132.47Z"/><path class="cls-3" d="M79.61,131.17a7.27,7.27,0,0,0-7.13,5.88,2.52,2.52,0,0,0-1.75-.7A2.55,2.55,0,0,0,69,137a7.24,7.24,0,1,0,.15,1.46,2.4,2.4,0,0,1,.37-.28,2.32,2.32,0,0,1,2.35,0,3.19,3.19,0,0,1,.43.34,7.27,7.27,0,1,0,7.27-7.35ZM56,138.44a6,6,0,1,1,6,6A6,6,0,0,1,56,138.44Zm23.66,6a6,6,0,1,1,6-6A6,6,0,0,1,79.61,144.42Z"/><path class="cls-12" d="M63.08,151.22a7.7,7.7,0,0,0,3.4,4.81,7.9,7.9,0,0,0,8.42,0,7.7,7.7,0,0,0,3.4-4.81Z"/><path class="cls-13" d="M77.79,152.22a6.31,6.31,0,0,0,.51-1H63.08a6.31,6.31,0,0,0,.51,1Z"/><rect class="cls-7" x="117" y="6.22" width="76" height="76" rx="38"/><path class="cls-3" d="M176,67.53v-46A21.5,21.5,0,0,0,154.5,0h0A21.5,21.5,0,0,0,133,21.51v46A81.11,81.11,0,0,1,176,67.53Z"/><path class="cls-1" d="M178.11,60.42c-5-4.53-14.31-6.2-21.57-6.2h-4c-7.26,0-16.59,1.67-21.57,6.2-5.63,5.12-6.45,13.6-6.46,21.8h60C184.56,74,183.74,65.54,178.11,60.42Z"/><path class="cls-8" d="M157,54.22H153a49.32,49.32,0,0,0-8,.67V58a10.25,10.25,0,0,0,9.08,10.32A10.06,10.06,0,0,0,165,58.27V54.89A49.32,49.32,0,0,0,157,54.22Z"/><path class="cls-9" d="M155,67h0a8.92,8.92,0,0,1-9-8.84V44.22h18V58.11A8.92,8.92,0,0,1,155,67Z"/><path class="cls-10" d="M154.5,54.29h0a16.3,16.3,0,0,1-10.71-4l-1.31-1.14A16,16,0,0,1,137,37.09V12.22h35V37.09a16,16,0,0,1-5.48,12.06l-1.31,1.14A16.3,16.3,0,0,1,154.5,54.29Z"/><path class="cls-11" d="M159.66,29a.32.32,0,0,1,.32.32,3.34,3.34,0,0,0,6.68,0,.33.33,0,0,1,.65,0,4,4,0,0,1-8,0A.32.32,0,0,1,159.66,29Z"/><path class="cls-11" d="M142,29a.32.32,0,0,1,.32.32,3.34,3.34,0,0,0,6.68,0,.32.32,0,0,1,.64,0,4,4,0,0,1-8,0A.32.32,0,0,1,142,29Z"/><path class="cls-11" d="M153.17,39.35a.3.3,0,0,1-.22-.08.31.31,0,0,1,0-.44l0,0a2.15,2.15,0,0,1,3,0,.34.34,0,0,1,0,.46.32.32,0,0,1-.46,0,1.5,1.5,0,0,0-2.13,0A.35.35,0,0,1,153.17,39.35Z"/><path class="cls-12" d="M148.14,44.22a6.72,6.72,0,0,0,12.68,0Z"/><path class="cls-13" d="M160.24,45.22c.23.06.43-.33.58-1H148.14c.15.67.35,1.06.58,1Z"/><path class="cls-9" d="M146.05,38.76c0,1.28-1.44,2.31-3.21,2.31s-3.2-1-3.2-2.31,1.43-2.32,3.2-2.32S146.05,37.48,146.05,38.76Z"/><path class="cls-10" d="M140.33,34a3.21,3.21,0,1,1-3.21-3.33A3.27,3.27,0,0,1,140.33,34Z"/><path class="cls-9" d="M169.32,38.76c0,1.28-1.43,2.31-3.2,2.31s-3.21-1-3.21-2.31,1.44-2.32,3.21-2.32S169.32,37.48,169.32,38.76Z"/><path class="cls-10" d="M175.16,34.33A3.21,3.21,0,1,1,172,31,3.27,3.27,0,0,1,175.16,34.33Z"/><rect class="cls-2" x="45" y="27.22" width="65" height="65" rx="32.5"/><path class="cls-16" d="M96.83,73.53c-4.26-3.88-12.26-5.31-18.49-5.31h-3.4c-6.22,0-14.22,1.43-18.49,5.31-4.82,4.39-5.52,11.66-5.53,18.69h51.45C102.36,85.19,101.66,77.92,96.83,73.53Z"/><path class="cls-8" d="M78.17,68.22H74.83A41,41,0,0,0,68,68.8v2.68a8.72,8.72,0,0,0,7.24,8.73A8.55,8.55,0,0,0,85,71.67V68.8A41,41,0,0,0,78.17,68.22Z"/><path class="cls-9" d="M69,59.22H84a0,0,0,0,1,0,0v11.5a7.5,7.5,0,0,1-7.5,7.5h0a7.5,7.5,0,0,1-7.5-7.5V59.22A0,0,0,0,1,69,59.22Z"/><path class="cls-10" d="M76.5,68.06h0a13.26,13.26,0,0,1-8.87-3.41l-1.1-1A13.62,13.62,0,0,1,62,53.53V32.22H91V53.53a13.62,13.62,0,0,1-4.53,10.14l-1.1,1A13.26,13.26,0,0,1,76.5,68.06Z"/><path class="cls-6" d="M94.91,40.12a18.33,18.33,0,0,0-35.37-6.75,16.9,16.9,0,0,0-1.4,7.8,5,5,0,0,0,1.43,3.24c1.36,1.21,3.28,1,5,.91,4.12-.28,8.13-1.64,12.14-2.53l4.92-1.1.55-4.08.76,4.08,7.81,1.58A3.51,3.51,0,0,0,94.91,40.12Z"/><path class="cls-11" d="M81,46.54a.27.27,0,0,1,.27.27,2.85,2.85,0,1,0,5.69,0,.28.28,0,0,1,.55,0,3.4,3.4,0,1,1-6.79,0A.27.27,0,0,1,81,46.54Z"/><path class="cls-11" d="M65.93,46.54a.27.27,0,0,1,.27.27,2.85,2.85,0,1,0,5.69,0,.28.28,0,0,1,.28-.27.27.27,0,0,1,.27.27,3.4,3.4,0,1,1-6.79,0A.27.27,0,0,1,65.93,46.54Z"/><path class="cls-11" d="M75.22,55.33a.26.26,0,0,1-.19-.07.26.26,0,0,1,0-.37l0,0a1.84,1.84,0,0,1,2.59,0,.28.28,0,0,1-.39.39,1.28,1.28,0,0,0-1.81,0A.31.31,0,0,1,75.22,55.33Z"/><path class="cls-12" d="M71.13,59.22a5.29,5.29,0,0,0,10.41,0Z"/><path class="cls-13" d="M81.3,60.22a2.44,2.44,0,0,0,.24-1H71.13a2.33,2.33,0,0,0,.23,1Z"/><ellipse class="cls-9" cx="66.5" cy="55.22" rx="2.5" ry="2"/><path class="cls-10" d="M64.06,50.48a2.74,2.74,0,1,1-2.73-2.94A2.83,2.83,0,0,1,64.06,50.48Z"/><ellipse class="cls-9" cx="86.5" cy="55.22" rx="2.5" ry="2"/><path class="cls-10" d="M94.3,50.48a2.74,2.74,0,1,1-2.73-2.94A2.84,2.84,0,0,1,94.3,50.48Z"/><rect class="cls-7" x="2" y="53.22" width="48" height="14"/><text class="cls-17" transform="translate(10.91 62.29)">desi<tspan class="cls-18" x="13.47" y="0">g</tspan><tspan x="17.87" y="0">ner</tspan></text><rect class="cls-3" x="127" y="101.22" width="58" height="58" rx="28.92"/><path class="cls-6" d="M155.92,136.23A15.91,15.91,0,0,0,172,120.33V112.7a16.41,16.41,0,0,0-16.5-16.31h0A16.41,16.41,0,0,0,139,112.7v7.59a15.91,15.91,0,0,0,16,15.94Z"/><path class="cls-2" d="M173.35,141.87c-3.74-3.4-10.74-4.65-16.18-4.65h-3c-5.44,0-12.44,1.25-16.18,4.65-4.22,3.84-4.83,10.2-4.84,16.35h45C178.18,152.07,177.57,145.71,173.35,141.87Z"/><path class="cls-8" d="M157,137.22h-3a36.51,36.51,0,0,0-6,.51v2.39a7.74,7.74,0,0,0,6.57,7.79,7.57,7.57,0,0,0,8.43-7.62v-2.56A36.51,36.51,0,0,0,157,137.22Z"/><path class="cls-9" d="M155.5,147.45h0a6.6,6.6,0,0,1-6.5-6.7V130.22h13v10.53A6.6,6.6,0,0,1,155.5,147.45Z"/><path class="cls-10" d="M156,137.11h0a12,12,0,0,1-8-3l-1-.88a12.12,12.12,0,0,1-4.06-9V105.22h26v18.93a12.12,12.12,0,0,1-4.06,9l-1,.88A12,12,0,0,1,156,137.11Z"/><path class="cls-6" d="M172,114.22v-1.39a16.4,16.4,0,0,0-16.5-16.3h0a16.4,16.4,0,0,0-16.5,16.3v1.39h10.49a12.57,12.57,0,0,0,11-6.46h0l1.81,2.79a8,8,0,0,0,6.74,3.67Z"/><path class="cls-11" d="M151.7,121.74a.25.25,0,0,1-.25-.24,2.53,2.53,0,0,0-5.06,0,.25.25,0,0,1-.49,0,3,3,0,0,1,6,0A.24.24,0,0,1,151.7,121.74Z"/><path class="cls-11" d="M165.1,121.74a.24.24,0,0,1-.24-.24,2.53,2.53,0,0,0-5.06,0,.25.25,0,0,1-.49,0,3,3,0,1,1,6,0A.25.25,0,0,1,165.1,121.74Z"/><path class="cls-11" d="M154.41,126.3a.2.2,0,0,1-.16-.07.23.23,0,0,1,0-.33l0,0a1.65,1.65,0,0,1,2.31,0,.25.25,0,0,1-.35.35,1.13,1.13,0,0,0-1.61,0A.3.3,0,0,1,154.41,126.3Z"/><path class="cls-15" d="M153.45,120.86a4.53,4.53,0,1,0-4.53,4.53A4.53,4.53,0,0,0,153.45,120.86Z"/><path class="cls-10" d="M143,118.23h0a2.72,2.72,0,1,0,0,5.41v-5.4Z"/><path class="cls-10" d="M169,118.23h0a2.72,2.72,0,1,1,0,5.41v-5.4Z"/><path class="cls-15" d="M162.33,116.33a4.53,4.53,0,1,0,4.53,4.53A4.53,4.53,0,0,0,162.33,116.33Z"/><path class="cls-11" d="M162.33,115.35a5.52,5.52,0,0,0-5.41,4.45,1.93,1.93,0,0,0-1.32-.53,2,2,0,0,0-1.28.49,5.51,5.51,0,1,0,.11,1.11,1.86,1.86,0,0,1,.28-.21,1.77,1.77,0,0,1,1.78,0,2.5,2.5,0,0,1,.33.26,5.51,5.51,0,1,0,5.51-5.57Zm-17.94,5.51a4.53,4.53,0,1,1,4.53,4.53A4.53,4.53,0,0,1,144.39,120.86Zm17.94,4.53a4.53,4.53,0,1,1,4.53-4.53A4.53,4.53,0,0,1,162.33,125.39Z"/><path class="cls-12" d="M151.19,131.22a4.5,4.5,0,0,0,8.87,0Z"/><path class="cls-13" d="M159.69,132.22c.17-.66.3-1.06.37-1h-8.87c.07-.06.19.34.37,1Z"/><rect class="cls-6" x="178" y="123.22" width="52" height="15"/><text class="cls-19" transform="translate(182.39 133.35)"><tspan class="cls-20">w</tspan><tspan x="6.25" y="0">eb desi</tspan><tspan class="cls-21" x="31.88" y="0">g</tspan><tspan class="cls-22" x="36.64" y="0">n</tspan></text><path class="cls-3" d="M134.32,22.9a52.84,52.84,0,0,0,11.59,3.36l.68-11.09.52,11.29a87.46,87.46,0,0,0,13.53,1l.4-8.9.56,8.9c1.93,0,3.86-.06,5.77-.15,2.72-.12,5.67-.24,8.63-.56V22c0-11.21-8.38-20.92-19.55-21.9A21.5,21.5,0,0,0,133,21.5v1.15A3.18,3.18,0,0,1,134.32,22.9Z"/></g></g></svg>