<svg xmlns="http://www.w3.org/2000/svg" xmlns:xlink="http://www.w3.org/1999/xlink" width="1269" height="982" viewBox="0 0 1269 982">
  <defs>
    <clipPath id="clip-WHITE">
      <rect width="1269" height="982"/>
    </clipPath>
  </defs>
  <g id="WHITE" clip-path="url(#clip-WHITE)">
    <path id="Union_6" data-name="Union 6" d="M638.846,667.555,485.317,499.694H4.739v-26.71H562.992v.347l57.651,57.641a15.6,15.6,0,0,0,22.1,0l60.289-60.28a15.679,15.679,0,0,0,0-22.109l-60.289-60.317a15.6,15.6,0,0,0-22.1,0l-58,58.023H436.46l-73.4-80.245H155.22V339.337H713.473v.408l57.641,57.7a15.663,15.663,0,0,0,22.1,0L853.5,337.13a15.611,15.611,0,0,0,0-22.109L793.214,254.7a15.663,15.663,0,0,0-22.1,0l-57.961,58.023H314.279L296.84,293.642l-24.285-26.552-46.717-45.5H4.739V194.884H562.992v.325l57.8,57.855a15.4,15.4,0,0,0,21.772,0l60.619-60.642a15.415,15.415,0,0,0,0-21.782L642.561,110a15.4,15.4,0,0,0-21.772,0l-58.105,58.168h-391.7L55.715,55.909C46.462,46.895,0,0,0,0H628.107c3.64,0,7.282.072,10.921.182C818.3,5.938,961.85,153.122,961.85,333.886c0,180.732-143.551,327.916-322.822,333.669Z" transform="translate(154 157)" fill="#fff"/>
  </g>
</svg>
