<svg xmlns="http://www.w3.org/2000/svg" xmlns:xlink="http://www.w3.org/1999/xlink" viewBox="0 0 614.55 382.69"><defs><style>.cls-1{fill:none;}.cls-2{fill:#bdcae0;}.cls-3{fill:#cddcf4;}.cls-4{fill:#b0bdd1;}.cls-5{fill:#dbe9ff;}.cls-6{fill:#f6a397;}.cls-7{fill:#d65863;}.cls-8{fill:#5470d3;}.cls-9{fill:#314ec6;}.cls-10{fill:#504984;}.cls-11{fill:#372d5b;}.cls-12{fill:#ba6454;}.cls-13{fill:#874438;}.cls-14{fill:#fff;}.cls-15{fill:#3f1751;}.cls-16{fill:#ba5e5b;}.cls-17{fill:#ffa6a4;}.cls-18{fill:#e67471;}.cls-19{fill:#282142;}.cls-20{fill:#7f74d1;}.cls-21{fill:#8e5058;}.cls-22{fill:#64364a;}.cls-23{clip-path:url(#clip-path);}.cls-24{fill:#ffc5c7;}.cls-25{fill:#dcedff;}.cls-26{fill:#fe8a8b;}.cls-27{fill:#0c0835;}.cls-28{fill:#252384;}.cls-29{fill:#57aff7;}.cls-30{fill:#c31f2a;}.cls-31{fill:#fb8384;}.cls-32{font-size:20.46px;fill:#d1c8d9;font-family:BebasKai;}.cls-33{letter-spacing:-0.04em;}.cls-34{letter-spacing:-0.02em;}</style><clipPath id="clip-path"><path class="cls-1" d="M185.31,95.23a71.85,71.85,0,0,1-143.7,0c0-39.68,32.17-85.8,71.85-85.8S185.31,55.55,185.31,95.23Z"/></clipPath></defs><g id="Layer_2" data-name="Layer 2"><g id="OBJECTS"><path class="cls-2" d="M604,312.92c-26,39.46-70.61,62.65-117.87,62.65H93.84c-78.84,0-123-92.18-71.92-144.09s6-96.24,84.83-137.86C183.16,53.29,209.25,139.25,279.64,83S452.5,32.07,475,89.37s17.21,77.48,65,90.21,94.45,84.89,65.8,130.52C605.18,311.05,604.57,312,604,312.92Z"/><path class="cls-3" d="M586.53,328.92c-41.33,3.5-69.18,81-172.48,34.4,0,0,11.34-33.81,62.15-54.89S586.53,328.92,586.53,328.92Z"/><path class="cls-4" d="M428.15,357.52a286.6,286.6,0,0,1,33.4-14.64c2.84-1.1,5.72-2.08,8.61-3s5.8-1.89,8.71-2.79,5.85-1.69,8.8-2.49c1.47-.39,2.93-.81,4.41-1.18l4.45-1.07,4.46-1,4.49-.88,4.5-.88c1.49-.29,3-.51,4.51-.74,3-.45,6-1,9.08-1.25s6.06-.75,9.12-.86A152.38,152.38,0,0,1,569.16,328a247.45,247.45,0,0,0-36.16,1.9l-2.24.26-2.23.34-4.47.65c-3,.38-5.94,1-8.9,1.52-1.48.29-3,.49-4.44.8l-4.42.92-4.42.92-4.4,1.05-4.4,1c-1.47.35-2.92.75-4.38,1.12l-4.38,1.13c-1.46.37-2.9.82-4.36,1.2-2.9.8-5.82,1.58-8.7,2.48s-5.79,1.7-8.67,2.62C451.06,349.55,439.62,353.5,428.15,357.52Z"/><path class="cls-5" d="M591.58,197.1c-50.42,36-27.09,156.82-195.35,175.84,0,0-11.23-52.1,38-118S591.58,197.1,591.58,197.1Z"/><path class="cls-3" d="M407.42,358.39A282.77,282.77,0,0,1,434,313.06a319.46,319.46,0,0,1,34-40.34,279.77,279.77,0,0,1,40.45-33.92c14.52-9.92,30.19-18.47,46.9-23.79a292.46,292.46,0,0,0-43.53,28.4,419.65,419.65,0,0,0-38.64,34.47,515.77,515.77,0,0,0-34.61,38.62C427.64,330,417.39,344,407.42,358.39Z"/><path class="cls-3" d="M47.68,318.15c41,6.41,63.31,85.63,169.63,46.47,0,0-8.93-34.53-58.14-59.13S47.68,318.15,47.68,318.15Z"/><path class="cls-4" d="M203.65,357.84c-11.16-4.82-22.29-9.57-33.54-14-2.81-1.12-5.65-2.15-8.46-3.23s-5.67-2.08-8.51-3.08c-1.43-.48-2.83-1-4.26-1.51l-4.29-1.43c-1.43-.48-2.85-1-4.29-1.43L136,331.88l-4.31-1.36-4.35-1.23L123,328.06c-1.45-.41-2.92-.72-4.38-1.11-2.91-.74-5.82-1.55-8.77-2.14l-4.41-1-2.2-.49-2.22-.42a247.71,247.71,0,0,0-35.93-4.44,152.57,152.57,0,0,1,36.47,1.23c3,.33,6,1,9,1.51s6,1.22,9,1.87c1.49.34,3,.67,4.46,1.06l4.42,1.2,4.41,1.19,4.38,1.34,4.36,1.38c1.45.47,2.89,1,4.33,1.48,2.88,1,5.77,2,8.6,3.11s5.69,2.19,8.49,3.39,5.62,2.34,8.38,3.63A289.1,289.1,0,0,1,203.65,357.84Z"/><path class="cls-5" d="M74.92,191.56c45.4,37.55,15.2,150.53,173.49,179.83,0,0,14.14-48.66-28.11-114.41S74.92,191.56,74.92,191.56Z"/><path class="cls-3" d="M238.77,356.84c-8.56-14.29-17.37-28.25-26.82-41.74s-19.52-26.48-30.26-38.9a406.37,406.37,0,0,0-34.29-35.28,282.92,282.92,0,0,0-39.29-30c15.52,6.1,29.84,15.23,43,25.6a263.54,263.54,0,0,1,36.14,34.86A301.85,301.85,0,0,1,216.71,312,265.79,265.79,0,0,1,238.77,356.84Z"/><path class="cls-6" d="M341.92,296.73c-5.68,6.75-10.83,17.94-14,19.72s-8.59,2.39-13.68,18.79,20.62,14.15,20.62,14.15,11-6.31,15.44-21.57l11-9.77Z"/><path class="cls-7" d="M322,347.59a41.26,41.26,0,0,0,15.38-10.16c7.09-7.49,8-20.81,8-20.81l3.4,6.34,6.79-7.25,3.27-.32,2.41,2.66-11,9.77c-4.44,15.26-15.44,21.57-15.44,21.57a40.68,40.68,0,0,1-13.08-1.17A5.91,5.91,0,0,1,322,347.59Z"/><path class="cls-8" d="M380.48,238c-7.88,5.76-12.58,9.94-16.49,17.78s-28.47,36-30,38.49,13.79,29.14,26.09,35.67c0,0,18.56-21.41,29.27-29.51s7.05-36.82,2.09-46.48A75.94,75.94,0,0,0,380.48,238Z"/><path class="cls-9" d="M380.19,289.84v-16s2.09-.84,3.71,4.56a14.81,14.81,0,0,1,.31,6.38l12-9c.49,10.06-1.12,20.3-6.85,24.63-10.71,8.1-29.27,29.51-29.27,29.51-3.18-1.68-6.55-4.71-9.79-8.31C357.82,314.1,372.16,299.57,380.19,289.84Z"/><path class="cls-6" d="M303.83,343.08c-2.05.63-3.56,1.61-3.56,4.19s.45,6.66,1.42,8.26,6,2.55,6,2.55-.33-10.64-1.4-12.59A5,5,0,0,0,303.83,343.08Z"/><path class="cls-7" d="M301.69,355.53a7.23,7.23,0,0,1-.69-1.87,3.42,3.42,0,0,0,2.8,1.23l3.83,1.2c.06,1.19.08,2,.08,2S302.67,357.12,301.69,355.53Z"/><path class="cls-6" d="M308.71,339.18c-2.49.27-5,2.14-5,4.71s-.89,9.77,0,10.93,5.24,4.44,6.75,4.7,4.07-.18,3.72-1S308.71,339.18,308.71,339.18Z"/><path class="cls-7" d="M303.36,352.88c1.88,2.13,6.71,1.94,6.71,1.94a19.63,19.63,0,0,1,2.38,3c.15.44,1,1,1.14,1.46a6.67,6.67,0,0,1-3.1.25c-1.48-.26-5.69-3.42-6.69-4.63l-.44-2Z"/><path class="cls-6" d="M318,334.94c-7.63.43-9,1.14-9.32,4.24s-.09,12.17.89,14.48,1.51,4.35,2.75,5.6a4.84,4.84,0,0,0,3.1,1.24s4.18-6.13,4.36-11.28S318,334.94,318,334.94Z"/><path class="cls-7" d="M313.64,355.4A46.83,46.83,0,0,0,315,344c0-2.65,2.5,11.2,1.4,15-.54.95-.94,1.52-.94,1.52a4.84,4.84,0,0,1-3.1-1.24c-1.24-1.25-1.78-3.29-2.75-5.6a3,3,0,0,1-.18-.53C309.92,354.42,311.5,355.27,313.64,355.4Z"/><path class="cls-6" d="M334.73,350.55c-.48,4.25-6,5.77-6.66,7.91s-.18,4.08-1.24,4.61-5.51-1.95-5.33-4.79a5.54,5.54,0,0,1-3.73,2.84c-2.58.44-3.2-1.44-2.76-4.27a35.6,35.6,0,0,0,.27-7.72c-.09-3.37-.89-6.48.62-10.21s3.56-7,7.64-6.4,6.57,5.78,8.79,7.55S335.26,345.85,334.73,350.55Z"/><path class="cls-7" d="M321.5,358.28c.25-5.4.53-9.82.53-10.69s-.28-6.59,1.75-6.94c.31-.06,4.79,2.78,4.88,4.7s0,5.35-1.39,6.33S321.5,358.28,321.5,358.28Z"/><path class="cls-8" d="M506.57,249.51c-8.1-10.27-10.88-11.32-19.24-16.19s-40-17.24-46.57-18.8-32.86,10.7-41.5,14.62-19.63,7.77-21.5,11.59c-6.27,12.78,6.14,30.89,6.21,68.84,0,19.88,4.56,64.58,4.56,64.58s99.5.18,100.89-1.9,4.88-73.47,6.62-88.1S506.57,249.51,506.57,249.51Z"/><path class="cls-9" d="M378.12,260.74a49.81,49.81,0,0,1-1.56-7.31A48.6,48.6,0,0,1,376,246a55.86,55.86,0,0,1,2.13,14.76Z"/><path class="cls-9" d="M415.33,245.79c-3.85-1.44-12.95,1.06-14.62,1.64s1-6.54,2-7.42,2.55-2.93,5.55-2,5.53,4.37,6,5.5A16.84,16.84,0,0,0,415.33,245.79Z"/><path class="cls-9" d="M447.36,251.73c-1.37-.07-9.37-3.74-11.29-4.66s-10.59-1.34-16.41.29c0,0,11.21-7.58,17.74-7.51s9,2.41,9.53,4.5A42.72,42.72,0,0,1,447.36,251.73Z"/><path class="cls-9" d="M404.59,358.14c1.06-1,66,1.05,67.35-5.74s2.2-19.14,2.2-19.14c-7.82,4.18-19.18,2.44-19.18,2.44,7.58-2.47,18.54-14.9,19.07-18.56,1.61-11.26-4.41-42.31-4.41-42.31L474,266l5.15-2.87a71.5,71.5,0,0,1,18.15,13.83,67.74,67.74,0,0,0-1.29,7.23c-1.64,13.79-4.83,78-6.36,87.07-20.12.74-56.61,2.08-81,2.92-11.83,0-20.13,0-20.13,0s-.15-5.88-.5-14.31C394.84,359.44,403.92,358.79,404.59,358.14Z"/><path class="cls-8" d="M417.78,247.68c7-.84,18.28-6.92,22.72-4.83s5.49,7.44,6.4,8.36,4.83-3.66,4.83-14.89.34-22.73-7.92-24.29-29.68,6.53-34,9.8a20.27,20.27,0,0,0-7.31,9.75c-1.18,3.17-4.31,16-2.88,16.1s5.49-8.23,8.49-8.49S415.88,247.91,417.78,247.68Z"/><path class="cls-9" d="M413.79,237.63c-1.78-4.25-3.74-8-3.68-10.91s.72-5,4-5.87,4.64.85,4.84,5.29S413.79,237.63,413.79,237.63Z"/><path class="cls-9" d="M439.39,229.72c6.82-6.19,7.6-13.12,7-14.55s-3.46-2.48-3.46-2.48-1.11,4.5-.46,5.61S439.39,229.72,439.39,229.72Z"/><path class="cls-9" d="M428.53,244.68a34.28,34.28,0,0,1,5.16-1.81,18.07,18.07,0,0,1,5.5-.65,4.93,4.93,0,0,1,2.78.93c.74.7,1.3,1.33,1.93,2a20.71,20.71,0,0,1,2.89,4.73,2.27,2.27,0,0,0,.57.85s0,0,.15-.06a1.94,1.94,0,0,0,.38-.38,14.15,14.15,0,0,0,1.33-2.26,18.51,18.51,0,0,0,1.61-5.05,43.93,43.93,0,0,0,.67-5.38c.15-1.81.2-3.62.23-5.44a46.58,46.58,0,0,1-.14,10.94,17.49,17.49,0,0,1-1.52,5.35,14.24,14.24,0,0,1-1.42,2.45,3.18,3.18,0,0,1-.58.58,1.34,1.34,0,0,1-.48.22,1,1,0,0,1-.64-.07,1.75,1.75,0,0,1-.69-.65,6,6,0,0,1-.36-.64,20.4,20.4,0,0,0-2.73-4.59c-.55-.67-1.19-1.4-1.76-2a4.44,4.44,0,0,0-2.29-.85,18.07,18.07,0,0,0-5.32.37A44.18,44.18,0,0,0,428.53,244.68Z"/><path class="cls-9" d="M412.45,242.34a22.93,22.93,0,0,0-2.33-1.89,7.26,7.26,0,0,0-1.25-.73,2.63,2.63,0,0,0-.62-.17.9.9,0,0,0-.24,0,.72.72,0,0,0-.23.12,13.82,13.82,0,0,0-4.11,4.09c-.56.79-1.06,1.69-1.72,2.51a7.73,7.73,0,0,1-1.14,1.15,1.88,1.88,0,0,1-.9.4.85.85,0,0,1-.65-.21,1.09,1.09,0,0,1-.31-.48,4.11,4.11,0,0,1-.07-1.66,12.54,12.54,0,0,1,.27-1.51,26.38,26.38,0,0,1,.88-2.91c-.14,1-.32,2-.4,3-.05.49-.09,1-.1,1.48a3.9,3.9,0,0,0,.15,1.33.29.29,0,0,0,.1.14s0,0,.05,0a1.13,1.13,0,0,0,.44-.25,7.24,7.24,0,0,0,.93-1c.59-.76,1.06-1.64,1.65-2.5a16.73,16.73,0,0,1,2-2.37,11.52,11.52,0,0,1,2.53-1.82,1.91,1.91,0,0,1,.46-.18,1.75,1.75,0,0,1,.51,0,3,3,0,0,1,.81.3,7.89,7.89,0,0,1,1.26.93A16.16,16.16,0,0,1,412.45,242.34Z"/><path class="cls-6" d="M412.83,212.12c0,2.76.13,5.51.42,8.26.7,6.73,0,15.61.54,17.25.6,1.82,4.12,8.35,4.12,8.35s6.27-2.87,8.88-6,6-3.3,10.58-7.92S445,220.1,444,214c-.13-.78-.94-8.6-1.11-16.7s-8.69-14.24-16.78-14.24-12.94,12-13.2,20.11C412.84,206.48,412.82,209.6,412.83,212.12Z"/><path class="cls-7" d="M442.92,197.29c.17,8.1,1,15.92,1.11,16.7a16.63,16.63,0,0,1-.17,5.91c-1.79.33-24.84.88-30.82-1.9-.13-2-.19-3.92-.21-5.88,0-2.52,0-5.64.11-9a30.69,30.69,0,0,1,2.7-11.2l19-6.72C439.26,187.73,442.8,192.11,442.92,197.29Z"/><path class="cls-10" d="M398.63,163.59c-12.25,0-16.83,9.4-16.83,16.46,0,6.33,2,16.46,16.83,16.46,7.41,0,12.42-7.37,12.42-16.46S406,163.59,398.63,163.59Z"/><path class="cls-11" d="M398.09,167.62c-9.25,0-12.71,7.1-12.71,12.43,0,4.78,1.53,12.43,12.71,12.43,5.59,0,9.38-5.57,9.38-12.43S403.68,167.62,398.09,167.62Z"/><path class="cls-6" d="M383.18,169.14c.72,4.29,2.85,5.93,3.79,11.72s-1.58,14.2,2.2,21.52,9.87,17,13.4,17.36,31.77-4.37,41.3-23.31c2.73-5.44,8.58-26.77,3.57-39.8s-13.13-24.95-31.94-25.31S379.34,146.39,383.18,169.14Z"/><path class="cls-7" d="M398.91,192.6a3.3,3.3,0,0,0,2.6-1,2.69,2.69,0,0,0,.49-2,6.06,6.06,0,0,1-5.09,1.1C396.69,192,397.73,192.58,398.91,192.6Z"/><path class="cls-12" d="M432.17,169.14a12.58,12.58,0,0,0-3.7-7s-7.18-3-12.74-3.53a73,73,0,0,1-11.26-2.17s1.76,4.47,4.75,6.37c0,0-13.29-.67-17.5-4.6,0,0,.82,3.24,1.63,5.42,0,0-6.51-.68-8.54-3.25,0,0-1.63,5.67-1.63,8.8,0,0-7.82-10.7-5.83-19.2s4.7-11.75,4.7-11.75a43.35,43.35,0,0,1-8.68,0s7.23-6.33,12.66-10.49,21.69-4.34,21.69-4.34-1.26-4.34.19-11.21c0,0,7,10.21,14.33,13.33s6.37,2.86,14.18,4.83,15.24,7,18.36,11.18,6.51,8.54,8.55,9.22c0,0-4.88-.68-7.33-2.71,0,0,4.07,9.24-1.31,21.14s-18.86,8.38-21.47,5.75A5.12,5.12,0,0,1,432.17,169.14Z"/><path class="cls-13" d="M433.22,174.89a5.12,5.12,0,0,1-1.05-5.75,12.71,12.71,0,0,0-2.62-5.87,79.2,79.2,0,0,0-2.32-35.68,39.67,39.67,0,0,0,6.18,1.95,67,67,0,0,1,8.16,17.72c2.37,7.88,3.51,16.39,1.31,24.31a26.59,26.59,0,0,1-2.44,5.87C437.1,177.16,434.27,176,433.22,174.89Z"/><path class="cls-10" d="M436.9,164.72s.93-29.74-14.66-39.24a20.34,20.34,0,0,1,19,10.72c6.92,12.07,6.45,22.42,6.28,28.22S436.9,164.72,436.9,164.72Z"/><path class="cls-10" d="M441.66,163.59c12.25,0,16.83,9.4,16.83,16.46,0,6.33-2,16.46-16.83,16.46-7.41,0-12.42-7.37-12.42-16.46S434.25,163.59,441.66,163.59Z"/><path class="cls-11" d="M435.05,180.05c0-8.07,5.33-14.62,11.9-14.62s11.54,6.55,11.54,14.62-5,14.61-11.54,14.61S435.05,188.12,435.05,180.05Z"/><ellipse class="cls-10" cx="448.52" cy="180.05" rx="8.1" ry="9.95"/><path class="cls-7" d="M410.61,196.51c-3.31,1.82-14.13,2.43-14.86,2.33s.77,8.11,3.42,8.41,7.95-.4,10.15-2.53S410.61,196.51,410.61,196.51Z"/><path class="cls-14" d="M409.92,198.9c-.21-.73-.37-1.31-.52-1.88-3.64,1.24-10.81,1.77-13,1.82a15,15,0,0,0,.94,3.3c.07,0,0,.11.05.06A16.12,16.12,0,0,0,409.92,198.9Z"/><path class="cls-15" d="M409.15,176.88c0-1.5.74-2.71,1.65-2.71s1.65,1.21,1.65,2.71-.74,2.72-1.65,2.72S409.15,178.38,409.15,176.88Z"/><path class="cls-15" d="M390.27,178.15c0-1.5.63-2.71,1.42-2.71s1.42,1.21,1.42,2.71-.64,2.71-1.42,2.71S390.27,179.65,390.27,178.15Z"/><path class="cls-15" d="M418.39,166.31a17.62,17.62,0,0,0-3.59-1.41,17.82,17.82,0,0,0-3.87-.58,9.68,9.68,0,0,0-4,.39A7.31,7.31,0,0,0,403.7,167l.09.16c1.37-.15,2.49-.48,3.68-.64s2.29-.6,3.5-.69a20.85,20.85,0,0,1,7.34.65Z"/><path class="cls-15" d="M385.5,169.81a7.56,7.56,0,0,1,1.82-.44,16.24,16.24,0,0,1,1.84-.12,8.56,8.56,0,0,0,1.82.07,5.55,5.55,0,0,0,.92-.26,4,4,0,0,0,1-.49l0-.19a3.5,3.5,0,0,0-1.94-.94,4.57,4.57,0,0,0-2,.32,9.46,9.46,0,0,0-1.92.72,6.25,6.25,0,0,0-1.65,1.19Z"/><path class="cls-10" d="M404.59,364.58c0,.42-.58,1-2,1H357.28c-5.22,0-6.44-2.07-4.87-4.68s8.18-8.36,24.55-12.36,25,5.36,27.63,9.57C406.54,361.24,404.59,364.58,404.59,364.58Z"/><path class="cls-11" d="M352,361.71c.9,3,35.46,1.44,35.46,1.44s-3.5-4.74-7.38-4.87-5.75,1.21-11,2.1-1.34-2.11-1.34-2.11-3.67-.81-5.17-2c0,0,8.56-2.53,12.15-3.12s12.73-.19,13.91,0c.83.14,5.05-2.31,10.14-1.08a23,23,0,0,1,5.75,6c2,3.1,0,6.44,0,6.44,0,.42-.58,1-2,1H357.28C352.6,365.61,351.14,363.94,352,361.71Z"/><path class="cls-6" d="M499.82,336.26s-32.2,5-49.66,8.11c-16.53,3-30.81,4.24-34.86,3.46S397.41,342,393,340.12s-13.31-2.87-17.88-1.43-8.32,3-10.15,3-1.48,3,1,3.57a18.21,18.21,0,0,0,4.62.52s-8.27,4.53-9.75,5,.27,3.14,2.27,3c0,0-1.75,1.05-1.14,2.09s5,1,5,1-5.31,2.61-.87,3.65,9.75-3.91,11.92-4.35,7.23-.17,9.67,1.66,12.88,10.27,27.16,5.22c0,0,96.89,3.92,106.55,3.92s15.5-8.54,12.4-25a124.5,124.5,0,0,0-9.1-28.72l-33.43,2.35Z"/><path class="cls-7" d="M378.14,343.17a14.25,14.25,0,0,1,2-.35Z"/><path class="cls-7" d="M370.52,345.78a18.21,18.21,0,0,1-4.62-.52,2.87,2.87,0,0,1-1.55-1c2.71,1.2,6,.44,7.87,0,1.16-.27,4-.79,5.92-1.13A44.57,44.57,0,0,0,370.52,345.78Z"/><path class="cls-7" d="M370.94,349.7a5.08,5.08,0,0,1,.5-.2Z"/><path class="cls-7" d="M360.78,352.68s1,.87,3,0c1.68-.73,5.74-2.4,7.16-3-1.78.81-6.61,3.54-7.9,4A2.78,2.78,0,0,1,360.78,352.68Z"/><path class="cls-7" d="M365.78,355.88c1.48-.43,4.57-2.31,6.47-3.2a12.88,12.88,0,0,1,4.31-1,9.42,9.42,0,0,0-2.62,1c-1.89.93-7.08,4.16-7.08,4.16a15.94,15.94,0,0,1-4.22-.54A12.57,12.57,0,0,0,365.78,355.88Z"/><path class="cls-7" d="M393.33,358c2.75,1.7,10.84,3.92,15.67,3a7.39,7.39,0,0,0,5.88-5l1.35,4.36s67.2,1.91,80.86,1.3,34.59-.92,37.34-9c-.76,9.42-5.86,14.26-13.14,14.26-9.66,0-106.55-3.92-106.55-3.92-14.28,5.05-24.73-3.4-27.16-5.22-2-1.52-5.86-2-8.34-1.81h0C383,354.69,390.59,356.32,393.33,358Z"/><path class="cls-7" d="M499.82,336.26s12.59-1.71,15.12-2L513,326.46l-15.93,3.22Z"/><path class="cls-8" d="M533.47,314.33a3.25,3.25,0,0,1-.77,3.53c-5.85,5.71-13.53,13.49-21.43,14.69-8.62,1.31-23,1.83-23.76,0s-3.66-25.07-8.88-36.82S470,278,468.7,271.18s10.45-22.72,15.67-24,17.24-2.09,22.2,2.35,8.62,21.41,14.36,34.21C525.57,294,531.39,309,533.47,314.33Z"/><path class="cls-9" d="M501.15,246.93c-1.6-.18-3.2-.32-4.8-.35a47.81,47.81,0,0,0-4.79,0,41.49,41.49,0,0,0-4.73.54c-.78.12-1.55.31-2.32.48a10.83,10.83,0,0,0-2.12.86,15,15,0,0,0-2,1.24c-.58.52-1.21,1-1.74,1.57a32.2,32.2,0,0,0-3.1,3.59c-1,1.28-1.82,2.62-2.65,4s-1.6,2.78-2.34,4.21a40,40,0,0,1,4.36-8.64,27.18,27.18,0,0,1,3.05-3.82,24,24,0,0,1,1.82-1.67,14.43,14.43,0,0,1,2.1-1.35,11.53,11.53,0,0,1,2.34-.93c.8-.17,1.6-.36,2.41-.46a31.62,31.62,0,0,1,4.86-.37A39.74,39.74,0,0,1,501.15,246.93Z"/><path class="cls-9" d="M527,319.15c0-4.18-8.85-42.43-16.64-63.75h0c3.31,7.29,6.41,18.92,10.62,28.32,4.64,10.32,10.46,25.24,12.54,30.61a3.25,3.25,0,0,1-.77,3.53c-2.24,2.19-4.75,4.68-7.44,7C525.47,324.65,527,323,527,319.15Z"/><path class="cls-16" d="M106.9,276.05a6.17,6.17,0,0,0,.73,3.72,26.74,26.74,0,0,1,3.29,13.64c-.1,3.11-.74,6.3.11,9.3,1.46,5.18,6.92,8.38,8.68,13.46,1.56,4.5.11,10.17,3.35,13.67a3,3,0,0,0,3.14,1.09,3.78,3.78,0,0,0,1.36-1.12c3.71-4.22,7.69-9.35,6.54-14.85-1.07-5.16-6.4-8.66-7.41-13.84-.82-4.23,1.34-9.11-1.08-12.68-.67-1-1.63-1.74-2.36-2.68-2.89-3.7-1.82-9.6-5.14-12.92a7.73,7.73,0,0,0-3.92-2,6.1,6.1,0,0,0-7.29,5.22Z"/><path class="cls-17" d="M128,341.71c.23-2.76.32-5.51.42-8.28-.12-2.75-.27-5.51-.5-8.27s-.55-5.5-1-8.24a35.11,35.11,0,0,0-2.29-8.06c-2-5.06-3.62-10.34-5.25-15.58l-2.37-7.9q-1.45-3.87-2.84-7.77c.4,2.74,1,5.43,1.58,8.14l2.37,7.91c1.65,5.27,3.25,10.52,5.3,15.7a34.05,34.05,0,0,1,2.21,7.79c.48,2.68.78,5.4,1,8.13s.39,5.46.49,8.21Z"/><path class="cls-17" d="M113.46,285.84a6.42,6.42,0,0,0,1.67,1.66,9.44,9.44,0,0,0,1.05.54,4,4,0,0,1,1,.66l.13.11.11-.17c.26-.4.58-.77.84-1.18s.49-.82.71-1.24a9.85,9.85,0,0,0,.89-2.75l-.08,0a9.72,9.72,0,0,0-1.65,2.37c-.21.43-.38.88-.56,1.32s-.27.93-.43,1.38l.23-.06a4,4,0,0,1-.91-.72,10.88,10.88,0,0,0-.82-.84,6.65,6.65,0,0,0-2.09-1.11Z"/><path class="cls-17" d="M114.13,295.26c.47.39,1,.82,1.47,1.17a12.53,12.53,0,0,0,1.6,1c.56.27,1.16.49,1.71.8a10.16,10.16,0,0,1,1.54,1.08l.17.14.17-.23a27.1,27.1,0,0,0,2-3.11,20.4,20.4,0,0,0,1.45-3.43l-.08-.05a20,20,0,0,0-2.19,3,27.75,27.75,0,0,0-1.63,3.33l.35-.09a11.92,11.92,0,0,1-1.65-.9c-.52-.35-1-.8-1.49-1.18a11.33,11.33,0,0,0-1.62-1,7.42,7.42,0,0,0-1.8-.66Z"/><path class="cls-17" d="M117.48,307.7a7.8,7.8,0,0,0,1.7,1.26,6.6,6.6,0,0,0,1.92.77,5,5,0,0,1,1.87.89c.55.42,1.09.88,1.64,1.24l.42.28.31-.47a12.56,12.56,0,0,0,1.2-2.15,11.72,11.72,0,0,0,.77-2.39l-.09-.06a11.29,11.29,0,0,0-1.61,1.94,13.7,13.7,0,0,0-1.18,2.16l.73-.19a11.87,11.87,0,0,0-2-.78,5.92,5.92,0,0,1-1.82-1,5.76,5.76,0,0,0-1.79-1.07,7.35,7.35,0,0,0-2-.52Z"/><path class="cls-18" d="M132.4,342.25c2.15-.36,10.23-2.94,9.66-5.05-2.42-9.05-4.84-19.32,3.55-23.75,4-2.13,9.1-3.21,11.39-7.15s.63-9.22-1.5-13.42-4.68-8.68-3.77-13.29c1-4.82,5.52-8.39,6.25-13.25,1-6.65-5.45-12-11.65-14.6-2.11-.88-4.43-1.63-6.65-1.1a8.19,8.19,0,0,0-4.05,2.62c-4.35,4.87-4.18,12.22-3.18,18.67s2.51,13.27.08,19.34c-1.73,4.3-5.42,8.35-4.43,12.88.39,1.82,1.52,3.4,2,5.21,1.16,4.87-2.89,9.26-4.74,13.92a17.07,17.07,0,0,0,3.78,17.89,3.79,3.79,0,0,0,3.3,1.08Z"/><path class="cls-17" d="M131.64,342.35c.49-3.58,1-7.16,1.63-10.7.15-.89.34-1.77.48-2.65s.22-1.79.36-2.67q.4-2.65.91-5.3a69,69,0,0,1,2.7-10.33A21.25,21.25,0,0,1,140,306a6.31,6.31,0,0,1,1.63-1.73,8.56,8.56,0,0,0,2.18-2,8.93,8.93,0,0,0,1.57-5.62,27.63,27.63,0,0,0-.8-5.51c-.83-3.56-1.88-7-2.46-10.49a24.19,24.19,0,0,1,.21-10.38c.29-.81.51-1.64.78-2.47a17.07,17.07,0,0,1,1-2.42,24,24,0,0,1,3-4.42,20.28,20.28,0,0,0-3.84,3.9,17.58,17.58,0,0,0-1.52,2.36,9.76,9.76,0,0,0-1,2.62,25.6,25.6,0,0,0-.25,11.08c.6,3.63,1.67,7.11,2.48,10.58a26.78,26.78,0,0,1,.76,5.18,7.25,7.25,0,0,1-1.25,4.61,6.78,6.78,0,0,1-1.77,1.64,8,8,0,0,0-2.07,2.16,22.76,22.76,0,0,0-2.45,5,71.8,71.8,0,0,0-2.78,10.59q-.51,2.67-.91,5.37c-.13.89-.29,1.79-.4,2.69s-.13,1.81-.19,2.71C131.7,335.11,131.57,338.73,131.64,342.35Z"/><path class="cls-17" d="M145.94,271.69a5.5,5.5,0,0,0-1.62,1,5.94,5.94,0,0,0-1.27,1.33,8.18,8.18,0,0,1-1.08,1.5,12.57,12.57,0,0,1-1.41,1.2l.64,0c-.21-.46-.48-.9-.72-1.34a14,14,0,0,0-.8-1.29c-.28-.42-.6-.82-.91-1.22s-.65-.77-.93-1.2l-.1,0a4.2,4.2,0,0,0,.31,1.58,10.19,10.19,0,0,0,.66,1.42,9.9,9.9,0,0,0,.85,1.29,13.75,13.75,0,0,0,1,1.2l.4.42.24-.38a10.69,10.69,0,0,1,1.05-1.51,7.27,7.27,0,0,1,1.42-1.16,7.11,7.11,0,0,0,1.3-1.27,10.48,10.48,0,0,0,1.07-1.51Z"/><path class="cls-17" d="M138.11,285.4a8.69,8.69,0,0,0,1,1.71,12.38,12.38,0,0,0,1.23,1.48c.47.44,1,.82,1.5,1.23a9.72,9.72,0,0,1,1.32,1.4l.12.16.18-.14a14.84,14.84,0,0,0,1.68-1.54c.49-.56,1-1.09,1.46-1.66s.88-1.18,1.29-1.79.77-1.25,1.2-1.85l-.06-.09a7.78,7.78,0,0,0-1.83,1.36,16.56,16.56,0,0,0-1.51,1.63c-.47.57-.88,1.19-1.31,1.78s-.79,1.29-1.2,1.8l.3,0a7.91,7.91,0,0,1-1.33-1.38c-.37-.52-.71-1.08-1.1-1.58a17.13,17.13,0,0,0-1.32-1.38,16.67,16.67,0,0,0-1.5-1.23Z"/><path class="cls-17" d="M152.51,296a30,30,0,0,1-2.1,2.24c-.72.7-1.5,1.32-2.26,2a7.11,7.11,0,0,1-2.63,1.53,9.67,9.67,0,0,1-3,.34l.44.32a19.74,19.74,0,0,0-.71-2.45,13.57,13.57,0,0,0-1-2.34,11.34,11.34,0,0,0-1.5-2.1A5.61,5.61,0,0,0,137.6,294l-.06.1a8.36,8.36,0,0,1,1.52,1.9c.42.69.78,1.41,1.13,2.14l1,2.23c.34.74.63,1.52.92,2.27l.14.37.31-.05a17.46,17.46,0,0,0,3.07-.88,31,31,0,0,0,3-1.21,7.89,7.89,0,0,0,2.48-2,7.75,7.75,0,0,0,1.55-2.79Z"/><path class="cls-17" d="M133,304.08a6.15,6.15,0,0,0-.42,2.51,8,8,0,0,0,.47,2.52,8.65,8.65,0,0,0,1.29,2.2l1.51,2,.1.14.18-.12a21.14,21.14,0,0,1,2.63-1.48c.88-.48,1.79-.88,2.71-1.27s1.83-.8,2.77-1.15,1.89-.69,2.86-1.05v-.11a14.23,14.23,0,0,0-6.09,1.24,17.76,17.76,0,0,0-2.73,1.52,18.24,18.24,0,0,0-2.4,2l.28,0a7,7,0,0,1-1.39-2,16.53,16.53,0,0,1-.79-2.27,18.1,18.1,0,0,1-.87-4.7Z"/><path class="cls-10" d="M117.75,365.61h23.06c2.14,0,4-1.85,4.28-4.36l3.65-28.36c.4-3.1-1.63-5.9-4.28-5.9H114.1c-2.65,0-4.68,2.8-4.28,5.9l3.65,28.36C113.8,363.76,115.61,365.61,117.75,365.61Z"/><path class="cls-11" d="M114.1,327h15.52c-2.65,0-4.68,2.8-4.28,5.9L129,361.25c.32,2.51,2.14,4.36,4.28,4.36H117.75c-2.14,0-4-1.85-4.28-4.36l-3.65-28.36C109.42,329.79,111.45,327,114.1,327Z"/><path class="cls-19" d="M324.29,357.82H227.86a1.75,1.75,0,0,0-1.76,1.76v4.27a1.76,1.76,0,0,0,1.76,1.76h96.43Z"/><path class="cls-10" d="M349.1,363.19v1.74a.68.68,0,0,1-.68.68H324.13a1.38,1.38,0,0,1-1.37-1.37v-5.06a1.37,1.37,0,0,1,1.53-1.36l24.21,4.7A.67.67,0,0,1,349.1,363.19Z"/><path class="cls-10" d="M155.76,193.92H336a8.66,8.66,0,0,1,8.14,5.72L383.54,309.1c1.65,5.64-2.48,9.87-9.12,10.59-1,.11-5.86-2.07-13.46-5.64H199.84a8.66,8.66,0,0,1-8.14-5.72l-35.6-98.88-9.45-4.94S144.42,193.92,155.76,193.92Z"/><path class="cls-11" d="M330.35,199.56H150.12a3.69,3.69,0,0,0-3.47,4.95L186.06,314a8.66,8.66,0,0,0,8.14,5.72H374.42a3.7,3.7,0,0,0,3.48-4.95L338.48,205.28A8.64,8.64,0,0,0,330.35,199.56Z"/><polygon class="cls-19" points="289.66 319.69 281.66 290.01 251.34 319.69 289.66 319.69"/><path class="cls-10" d="M245.78,238c.79,4.9,4,6.87,7.75,6.87a5.84,5.84,0,0,0,6-6.87,8.25,8.25,0,0,0-7.75-6.86A5.86,5.86,0,0,0,245.78,238Z"/><polygon class="cls-19" points="330.48 301.47 328.16 295.04 331.08 295.04 333.39 301.47 330.48 301.47"/><polygon class="cls-19" points="324.35 301.47 322.03 295.04 324.94 295.04 327.26 301.47 324.35 301.47"/><polygon class="cls-19" points="318.21 301.47 315.89 295.04 318.81 295.04 321.13 301.47 318.21 301.47"/><polygon class="cls-19" points="312.08 301.47 309.76 295.04 312.67 295.04 314.99 301.47 312.08 301.47"/><polygon class="cls-19" points="224.94 301.47 222.62 295.04 225.54 295.04 227.85 301.47 224.94 301.47"/><polygon class="cls-19" points="218.81 301.47 216.49 295.04 219.4 295.04 221.72 301.47 218.81 301.47"/><polygon class="cls-19" points="212.67 301.47 210.36 295.04 213.27 295.04 215.59 301.47 212.67 301.47"/><polygon class="cls-19" points="206.54 301.47 204.22 295.04 207.13 295.04 209.45 301.47 206.54 301.47"/><path class="cls-11" d="M228.8,355c1.78-5.12,23.35-74.71,23.35-74.71h27.68l1.83,9.7s-18.56,59.89-20.34,65c-.14.39-.26.78-.39,1.17h0c-1.63,5,2.66,5,7.5,5h48.82v4.43H235.92C226.13,365.61,227,360.14,228.8,355Z"/><path class="cls-10" d="M279.83,280.32S258.27,349.91,256.49,355s-2.67,10.58,7.11,10.58H231.08c-9.78,0-8.89-5.47-7.11-10.58s23.34-74.71,23.34-74.71Z"/><path class="cls-20" d="M273.05,280.32c-2.14-.1-4.29-.14-6.43-.21s-4.29-.09-6.44-.14-4.29-.1-6.43-.1l-6.44,0H247l-.12.35c-.89,2.8-1.78,5.61-2.62,8.43l-2.57,8.44c-1.65,5.65-3.3,11.3-4.81,17,2-5.55,3.82-11.14,5.66-16.73l2.67-8.42q1.35-4.2,2.61-8.43l-.47.35,6.44,0c2.14,0,4.29-.07,6.43-.1s4.29-.06,6.44-.14S270.91,280.42,273.05,280.32Z"/><path class="cls-21" d="M84.45,382.69H561.79a8.54,8.54,0,0,0,8.55-8.54h0a8.54,8.54,0,0,0-8.55-8.54H84.45a8.54,8.54,0,0,0-8.54,8.54h0A8.54,8.54,0,0,0,84.45,382.69Z"/><path class="cls-22" d="M84.45,382.69H561.79a8.54,8.54,0,0,0,8.55-8.54H75.91A8.54,8.54,0,0,0,84.45,382.69Z"/><circle class="cls-8" cx="113.46" cy="95.23" r="71.85" transform="translate(-5.12 184) rotate(-76.83)"/><g class="cls-23"><path class="cls-24" d="M214.49,152.57c1.37,6.86-5,13-7,14.09s-15.32,6.48-23.33,6.67-18.59-16.76-14.26-18.67,33.81-4,37-4S214.49,152.57,214.49,152.57Z"/><path class="cls-14" d="M193.48,149c-3.49,20.57-11.8,36.56-14.39,36.85s-27.49-8.28-34.35-11.43,2.11-51.41,6.38-50.56,13.63,10.13,21.37,14.57S193.48,149,193.48,149Z"/><path class="cls-25" d="M152.48,157.5c2.4,4.12,22.18,14.55,33.08,18.35-2.7,6.08-5.23,9.81-6.47,10-2.22.24-20.79-6-30.39-9.78A147.43,147.43,0,0,1,152.48,157.5Z"/><path class="cls-24" d="M214.52,151.62c.2,8.16-7.15,9.33-16,7.23S175.41,137,169,128s-18.32-24.9-20.79-26.33-8.12-2.19-13-10.23,1.52-24.9,3.81-26.9,21.89,4.67,24.17,8-1.61,21.51-.92,23.8,17.37,20.94,24.66,25.51S214.38,145.71,214.52,151.62Z"/><path class="cls-26" d="M149.11,78c-2.3-1.14-2.86-6.33-1.41-5.42s4,.9,7.42.85A29.71,29.71,0,0,0,160,73.1a29.71,29.71,0,0,1,.33,4.09S151.42,79.15,149.11,78Z"/><path class="cls-26" d="M133.85,79.19c1.39-2.6,2.47-4.57,2.47-4.57l13.49,13a84.27,84.27,0,0,1,8.2-6.11l1.18,2.11C157,87.29,155.11,95.1,155.07,97c0,0-2.07,2.28-3.23,2.47,0,0,14.43,22.85,23.7,34.09s15.54,20.83,19.89,23.93C186.66,152.44,174.69,136,169,128c-6.39-8.95-18.32-24.9-20.79-26.33s-8.12-2.19-13-10.23C133.34,88.25,133.19,83.68,133.85,79.19Z"/><path class="cls-27" d="M161.92,80.49c-.17,1.34-13.57,13-15,14.29a2,2,0,0,1-1.44,0c-3.57-3.14-19.13-31.4-19.41-32.42s10.07-10.67,13.23-13.27a2.8,2.8,0,0,1,2.49.29C145,54.1,162.13,78.77,161.92,80.49Z"/><path class="cls-28" d="M160.47,80.49c-.16,1.34-13.56,13-15,14.29S125,63.47,124.66,62.36c-.26-1,11.24-10.51,14.4-13.11a.88.88,0,0,1,1.32.13C143.56,54.1,160.69,78.77,160.47,80.49Z"/><path class="cls-29" d="M158.22,78.58c-.15,1.25-12.69,12.12-14,13.37S125,62.65,124.72,61.62s10.51-9.83,13.46-12.27a.84.84,0,0,1,1.24.13C142.4,53.89,158.42,77,158.22,78.58Z"/><path class="cls-24" d="M150.18,62.66c-2.07-1.25-4.62-5.49-4.85-6.92s-.09-2.71,1-3,4.55,4.19,6.26,5.52,3.8,4.1,2.95,5.95-4.66,1.15-5.06.86S150.18,62.66,150.18,62.66Z"/><path class="cls-26" d="M145.71,53.12c-.65,1.62,3.63,8.14,7.39,10l-1.39,1.6-1.45-.33a10.56,10.56,0,0,1-.08-1.74c-2.07-1.25-4.62-5.49-4.85-6.92A3.17,3.17,0,0,1,145.71,53.12Z"/><path class="cls-24" d="M155,69.24c-3.57-1.91-6.37-1.69-8.32-2.48s-2.29-3.78-1-4.28,9.37.78,11.44,1.71,3.07,5.2,3.07,5.2Z"/><path class="cls-26" d="M153.44,67c2,.39,2.72,0,2.72,0-.06.79.68,1.19,1.52,2.31L155,69.24c-3.57-1.91-6.37-1.69-8.32-2.48a2.93,2.93,0,0,1-1.64-2C145.92,66.4,151.43,66.64,153.44,67Z"/><path class="cls-24" d="M163.24,72.6c-1.91,2.63-11.25,1.49-13.13,1.21s-3.07-1.48-2.88-2.68c.39-2.42,12.74-2,13.76-1.61S163.24,72.6,163.24,72.6Z"/><path class="cls-26" d="M147.3,71.71c1.28,1.27,4.35,2,7.7,2.27a30.5,30.5,0,0,0,4.95.08,38.67,38.67,0,0,1-9.84-.25A3.11,3.11,0,0,1,147.3,71.71Z"/><path class="cls-14" d="M119.52,109.53c19.83,10.1,23.08,9.71,31.6,14.28s6,52.75,5.44,60.18-2.59,36.94-1.46,44.94,5.54,37.7,7.49,42.27,5.68,12.29-.08,16.86-17.95,7.71-44.41,6-55-18-56.24-20.28S74.51,229.5,75.09,221.5a107.77,107.77,0,0,1,3-17.71c.85-3.71-7.57-21.13-8.92-32.27S55.73,129.65,58,124,81.4,112.12,95.75,105,119.52,109.53,119.52,109.53Z"/><path class="cls-25" d="M139.18,122a55.36,55.36,0,0,1-18.76,27.31C109.68,146.69,98.76,142,90,135.26a128,128,0,0,0,32,17.48A47,47,0,0,0,139.18,122Z"/><path class="cls-24" d="M135.13,116.92c-3.81-1.63-8.7-3.87-15.61-7.39,0,0-9.42-11.73-23.77-4.57-5,2.48-10.77,4.86-16.3,7.14a71.67,71.67,0,0,0,38.39,31.34A50.66,50.66,0,0,0,135.13,116.92Z"/><path class="cls-25" d="M61.86,273.77c-1.26-2.28,12.65-44.27,13.23-52.27a107.77,107.77,0,0,1,3-17.71c.85-3.71-7.57-21.13-8.92-32.27a59.36,59.36,0,0,0-1.54-7.36l8.94-6.66c5.24,14.63,8.51,40.34,13.48,46.62S107.4,213,107.4,213s-12.23,2.86-17.56,1.72c0,0-5.69,22.56-5.76,33.7s1,28,1.1,30.28c0,.85-.13,3.83-.39,7.22C72,280.82,62.57,275.06,61.86,273.77Z"/><path class="cls-24" d="M98,84.67c-.2,11.92-1,20.1-3.63,22.39,0,0,4.54,19.78,22.68,18.09,6.13-.57,5.55-10.86,2.47-15.62l1.82-14.62Z"/><path class="cls-26" d="M95.75,105h0C97.3,101.3,97.84,94.18,98,84.67l23.34,10.24-1.17,9.38h0C116,106.15,95.75,105,95.75,105Z"/><path class="cls-24" d="M33.73,181.07c-4,5.52-9.4,19.23-7.38,25.51s22.83,34.28,32.35,44.75S70.38,263.52,72,267s9.77,17.56,11.89,19.71,6,2.42,6,2.42a10.12,10.12,0,0,0,8.36,2.57s4.78,3.29,8.57,4.15c0,0,1.26,2.42,2.53,2.64s2.88-2.36.54-7.5-6.18-7.28-6.8-10.57-3.59-10-3.59-10,6.68,6.84,10.79,7.27,4.66-2,2.4-4a52.08,52.08,0,0,1-7.89-8.86,15.76,15.76,0,0,0-11.34-7.14c-5.23-.71-8.9-1.28-10.26-2.28S75,244.67,70.34,234.19s-8.86-23.85-20.75-35.6l5.24-9.15Z"/><path class="cls-26" d="M106.66,295.14a22,22,0,0,0-4.93-7.56l-.81-.8c-.24-.25-.66-.57-.75-.71-.41-.52-.77-1.21-1.16-1.83-.75-1.29-1.49-2.6-2.32-3.86a31.81,31.81,0,0,0,1.53,4.3,12.29,12.29,0,0,0,1.06,2.07,8.74,8.74,0,0,0,.84.86l.76.79c1,1.05,2,2.16,3,3.26S105.75,293.94,106.66,295.14Z"/><path class="cls-26" d="M98,290.67c-.78-1.54-1.72-2.87-2.55-4.28s-1.65-2.77-2.44-4.29A8.94,8.94,0,0,0,94.49,287,11.37,11.37,0,0,0,98,290.67Z"/><path class="cls-26" d="M93.86,291.28a9.29,9.29,0,0,1-4-2.2s-3.84-.28-6-2.42a56.34,56.34,0,0,1-4.76-7.1c0,.05,2.44,2.65,4.16,4.8a5.81,5.81,0,0,0,5.9,2l-.46-2.78S91.08,289.92,93.86,291.28Z"/><path class="cls-26" d="M26.26,199.6c.12,2.61.15,4.68,4,11.52,4.35,7.69,30.5,40.13,36.21,46.13s5.53,6.38,8.91,15.85c-1.53-2.67-2.8-5-3.35-6.15-1.66-3.43-3.82-5.14-13.34-15.62s-30.33-38.46-32.35-44.75A15.66,15.66,0,0,1,26.26,199.6Z"/><path class="cls-26" d="M46.76,192.1l-2.13,3.54a12.08,12.08,0,0,1,5,3l4.15-7Z"/><path class="cls-14" d="M71.82,172.74c5.46-10.73,7.64-28.17,2.72-37.34S60.3,122.92,58,124s-8.46,15.41-14.26,22-21.65,25.14-22.14,26.7,11.46,14.15,33.9,23.4C58.2,197.24,71.82,172.74,71.82,172.74Z"/><path class="cls-25" d="M55.17,181.07l-3.58,7.34s17.64-17.68,25-30.88a53.27,53.27,0,0,1-4.73,15.21s-13.62,24.5-16.3,23.4c-3.84-1.58-7.34-3.26-10.56-5Z"/><path class="cls-11" d="M122.69,85.73c-1.21-4.91-1.19-9.93-1.48-15-.22-3.76-.41-7.2-3.82-9.44a12.65,12.65,0,0,0-8.55-1.6c-7.88,1-9.57,8.68-9,16,.46,5.57,2.64,10.91,4.79,16-2.89-.13-6.85-1.64-8.58-4.06A17.24,17.24,0,0,0,100.63,96c-8.4-.15-16.19-5.64-20.64-13S74.13,66.58,74.6,57.89c.57-10.31,3.78-20.64,10.15-28.58,12.83-16,37.53-17.82,52.58-4.1a37.8,37.8,0,0,1,10.8,17.89,59.38,59.38,0,0,1,.49,27.8,95.47,95.47,0,0,0-1.53,10.82c-.12,1.17-1.54,14.78-.72,14.73-5.3.32-11.4-.75-15-4.8,1.61,2.78,3,5.46,4.61,8.25C129.29,98.78,124.37,92.54,122.69,85.73Z"/><path class="cls-24" d="M95.16,67.19c-2.37-1.4-5.22-2.16-7.42.07-3.23,3.29,1.37,18.57,8.35,14.85,0,0,10.11,14.14,17.53,18.14s12.71,2,15.49-.86,12.25-14.57,14-27c.61-4.43,0-13.14.09-15,.42-5.72,2.58-10.41-1.93-14.89A26.08,26.08,0,0,0,124,35a27.92,27.92,0,0,0-21.52,9.42C96.53,51.14,95.5,58.7,95.16,67.19Z"/><path class="cls-26" d="M88.89,71.44c.61-2.8,3-3.35,4.77-1.4s2.13,8.33,1.66,9.26-3.6.87-4.19-1.06,1.23-3.15,3-2.58c0,0,.49-2.82-1-4.63s-2.93-1.13-3.3-.66A14.25,14.25,0,0,1,88.89,71.44Z"/><path class="cls-15" d="M108.22,59.05a24.67,24.67,0,0,1,2.15-1.77,15,15,0,0,1,2.42-1.43,7.88,7.88,0,0,1,2.68-.91,5.73,5.73,0,0,1,2.73.36v.13a13.3,13.3,0,0,1-1.32.42l-1.26.35c-.82.24-1.67.32-2.5.59a19.78,19.78,0,0,0-2.44,1c-.81.4-1.59.87-2.38,1.33Z"/><path class="cls-15" d="M139.81,55.85a9.25,9.25,0,0,0-2.42-.88,13.57,13.57,0,0,0-2.55-.31c-.87,0-1.72.16-2.58.16a24.36,24.36,0,0,1-2.67-.07l0-.12a6.56,6.56,0,0,1,2.66-1.09,8.09,8.09,0,0,1,2.78.1,11.12,11.12,0,0,1,2.63.72,8,8,0,0,1,2.26,1.38Z"/><path class="cls-15" d="M116.7,64.07c0-1.21-.64-2.13-1.36-2.06s-1.27,1.11-1.24,2.32.64,2.13,1.36,2.06S116.73,65.28,116.7,64.07Z"/><path class="cls-15" d="M135.78,62.55c0-1.21-.54-2.14-1.12-2.09s-1,1.09-1,2.3.53,2.14,1.12,2.08S135.81,63.76,135.78,62.55Z"/><path class="cls-26" d="M122.67,75.82a5.42,5.42,0,0,0,5.9-.06A2.71,2.71,0,0,1,127,77.92a3.65,3.65,0,0,1-2.74-.14C123.47,77.39,123.2,76.56,122.67,75.82Z"/><path class="cls-30" d="M116.05,82.9a164.47,164.47,0,0,0,16.69-1.11c-1.23,4-4.46,8-9,8C119.71,89.82,117,86.48,116.05,82.9Z"/><path class="cls-31" d="M119.71,88.5a7.15,7.15,0,0,1,3.85,0,6.13,6.13,0,0,1,5.16-.51,7.76,7.76,0,0,1-5,1.86A6.82,6.82,0,0,1,119.71,88.5Z"/><path class="cls-14" d="M130,85.17a19.53,19.53,0,0,1-12.24-.48c0-.59-.07-1.2-.11-1.8,3.94-.08,10.31-.56,13.72-.94A11.53,11.53,0,0,1,130,85.17Z"/><path class="cls-11" d="M99.15,54.05a55.73,55.73,0,0,0,18.95-4.21c1.14-2.64,1.18-5,1.35-7.86a22.83,22.83,0,0,1,2.77,9.75c3.78-.24,7.59-.45,11.37-.69a23.54,23.54,0,0,0,1-9.26A40.1,40.1,0,0,1,137,51.73c2.28-.81,5.18.37,7.56.8C147.49,45.94,147.3,34,141,29c-6.09-4.86-16.67-6.19-24.12-5.11-15.84,2.29-28.29,15.44-27.3,31.83.56,9.35,5.25,18.18,12,24.7A37.86,37.86,0,0,1,99.15,54.05Z"/></g><circle class="cls-18" cx="256.61" cy="100" r="41.78" transform="matrix(0.25, -0.97, 0.97, 0.25, 95.27, 323.21)"/><rect class="cls-5" x="232.57" y="83.65" width="48.08" height="32.71" rx="3.43" transform="translate(513.22 200.01) rotate(180)"/><path class="cls-3" d="M236,116.36h41.22a3.42,3.42,0,0,0,3.43-3.42l-24-15.12-24,15.12A3.42,3.42,0,0,0,236,116.36Z"/><path class="cls-8" d="M236,83.65h41.22a3.42,3.42,0,0,1,3.43,3.42l-24,15.12-24-15.12A3.42,3.42,0,0,1,236,83.65Z"/><circle class="cls-18" cx="552.83" cy="160.13" r="41.78" transform="translate(-21.88 128.91) rotate(-13.04)"/><path class="cls-5" d="M564.55,152h-4.2a14.73,14.73,0,0,0-1.91-4.6l3-3a1,1,0,0,0,0-1.47l-3.3-3.3a1,1,0,0,0-1.47,0l-3,3a15.18,15.18,0,0,0-4.6-1.91v-4.2a1,1,0,0,0-1-1h-4.68a1,1,0,0,0-1,1v4.2a15.13,15.13,0,0,0-4.61,1.91l-3-3a1,1,0,0,0-1.47,0l-3.3,3.3a1,1,0,0,0,0,1.47l3,3A14.73,14.73,0,0,0,531,152h-4.2a1,1,0,0,0-1,1v4.67a1,1,0,0,0,1,1H531a14.83,14.83,0,0,0,1.91,4.6l-3,3a1,1,0,0,0,0,1.46l3.3,3.31a1.05,1.05,0,0,0,1.47,0l3-3a14.91,14.91,0,0,0,4.61,1.92v4.2a1,1,0,0,0,1,1H548a1,1,0,0,0,1-1V170a15,15,0,0,0,4.6-1.92l3,3a1.05,1.05,0,0,0,1.47,0l3.3-3.31a1,1,0,0,0,0-1.46l-3-3a14.83,14.83,0,0,0,1.91-4.6h4.2a1,1,0,0,0,1-1V153A1,1,0,0,0,564.55,152Zm-18.86,9.82a6.45,6.45,0,1,1,6.45-6.45A6.45,6.45,0,0,1,545.69,161.78Z"/><path class="cls-8" d="M545.69,146.36a9,9,0,1,0,9,9A9,9,0,0,0,545.69,146.36Zm0,14.45a5.48,5.48,0,1,1,5.48-5.48A5.48,5.48,0,0,1,545.69,160.81Z"/><path class="cls-5" d="M582.5,170.36h-2.15a7.51,7.51,0,0,0-1-2.35l1.52-1.52a.53.53,0,0,0,0-.75l-1.68-1.69a.54.54,0,0,0-.75,0l-1.52,1.52a7.54,7.54,0,0,0-2.36-1v-2.15a.53.53,0,0,0-.53-.53h-2.38a.53.53,0,0,0-.53.53v2.15a7.54,7.54,0,0,0-2.36,1l-1.51-1.52a.54.54,0,0,0-.75,0l-1.69,1.69a.53.53,0,0,0,0,.75l1.52,1.52a7.51,7.51,0,0,0-1,2.35h-2.15a.53.53,0,0,0-.53.53v2.39a.53.53,0,0,0,.53.53h2.15a7.41,7.41,0,0,0,1,2.35l-1.52,1.52a.53.53,0,0,0,0,.75l1.69,1.69a.53.53,0,0,0,.75,0l1.51-1.52a7.81,7.81,0,0,0,2.36,1v2.14a.52.52,0,0,0,.53.53h2.38a.52.52,0,0,0,.53-.53v-2.14a7.81,7.81,0,0,0,2.36-1l1.52,1.52a.53.53,0,0,0,.75,0l1.68-1.69a.53.53,0,0,0,0-.75l-1.52-1.52a7.41,7.41,0,0,0,1-2.35h2.15a.53.53,0,0,0,.53-.53v-2.39A.53.53,0,0,0,582.5,170.36Zm-9.64,5a3.3,3.3,0,1,1,3.29-3.29A3.29,3.29,0,0,1,572.86,175.38Z"/><path class="cls-8" d="M572.86,167.5a4.59,4.59,0,1,0,4.58,4.59A4.58,4.58,0,0,0,572.86,167.5Zm0,7.39a2.8,2.8,0,1,1,2.8-2.8A2.8,2.8,0,0,1,572.86,174.89Z"/><circle class="cls-18" cx="364.34" cy="41.78" r="41.78" transform="translate(10.72 138.96) rotate(-21.91)"/><rect class="cls-14" x="340.3" y="22.14" width="48.08" height="41.11" rx="3.3" transform="translate(728.68 85.4) rotate(180)"/><path class="cls-8" d="M340.3,30.75h48.08v-5.3a3.31,3.31,0,0,0-3.31-3.31H343.6a3.31,3.31,0,0,0-3.3,3.31Z"/><path class="cls-14" d="M376.89,24h0a1,1,0,0,0,1-1V21.28a1,1,0,0,0-1-1h0a1,1,0,0,0-1,1V23A1,1,0,0,0,376.89,24Z"/><path class="cls-14" d="M379.68,24h0a1,1,0,0,0,1-1V21.28a1,1,0,0,0-1-1h0a1,1,0,0,0-1,1V23A1,1,0,0,0,379.68,24Z"/><path class="cls-14" d="M349,24h0a1,1,0,0,0,1-1V21.28a1,1,0,0,0-1-1h0a1,1,0,0,0-1,1V23A1,1,0,0,0,349,24Z"/><path class="cls-14" d="M351.78,24h0a1,1,0,0,0,1-1V21.28a1,1,0,0,0-1-1h0a1,1,0,0,0-1,1V23A1,1,0,0,0,351.78,24Z"/><rect class="cls-5" x="366.58" y="35.86" width="4.17" height="4.17" rx="0.79"/><rect class="cls-5" x="356.67" y="35.86" width="4.17" height="4.17" rx="0.79"/><rect class="cls-5" x="346.76" y="35.86" width="4.17" height="4.17" rx="0.79"/><rect class="cls-5" x="376.49" y="44.4" width="4.16" height="4.17" rx="0.79"/><rect class="cls-5" x="366.58" y="44.4" width="4.17" height="4.17" rx="0.79"/><rect class="cls-5" x="356.67" y="44.4" width="4.17" height="4.17" rx="0.79"/><rect class="cls-5" x="346.76" y="44.4" width="4.17" height="4.17" rx="0.79"/><rect class="cls-5" x="376.49" y="52.93" width="4.16" height="4.17" rx="0.79"/><rect class="cls-5" x="366.58" y="52.93" width="4.17" height="4.17" rx="0.79"/><rect class="cls-5" x="356.67" y="52.93" width="4.17" height="4.17" rx="0.79"/><circle class="cls-18" cx="483.95" cy="63.26" r="41.78" transform="translate(97.02 360.73) rotate(-45)"/><circle class="cls-14" cx="483.95" cy="63.26" r="28.62" transform="translate(97.02 360.73) rotate(-45)"/><path class="cls-8" d="M484,34.64a28.62,28.62,0,1,0,28.62,28.62A28.62,28.62,0,0,0,484,34.64Zm2.4,53V83.73A1.32,1.32,0,0,0,485,82.41h-2.17a1.32,1.32,0,0,0-1.31,1.32v3.91a24.5,24.5,0,0,1-22-22h3.9a1.32,1.32,0,0,0,1.32-1.32V62.17a1.31,1.31,0,0,0-1.32-1.31h-3.9a24.5,24.5,0,0,1,22-22v3.91a1.32,1.32,0,0,0,1.31,1.32H485a1.32,1.32,0,0,0,1.32-1.32V38.87a24.51,24.51,0,0,1,22,22h-3.91a1.31,1.31,0,0,0-1.31,1.31v2.17a1.32,1.32,0,0,0,1.31,1.32h3.91A24.51,24.51,0,0,1,486.35,87.64Z"/><text class="cls-32" transform="translate(466.92 70.08)"><tspan class="cls-33">2</tspan><tspan class="cls-34" x="9.64" y="0">4</tspan><tspan x="19.82" y="0">/7</tspan></text></g></g></svg>